PathFileType	4	(X/Y/Z)	H:\MAC\Pilotos\MDrajagopal3\Trimmed_runO3.trc
DataRate	CameraRate	NumFrames	NumMarkers	Units	OrigDataRate	OrigDataStartFrame	OrigNumFrames
150.00	150.00	       4	78	mm	150.00	77	       123
Frame#	Time	RACR			LACR			C7			CLAV			RASH			RPSH			LASH			LPSH			RUA1			RUA2			RUA3			RLEL			RMEL			RFAsuperior			RFAradius			RFAulna			LUA1			LUA2			LUA3			LLEL			LMEL			LFAsuperior			LFAradius			LFAulna			RASI			LASI			RPSI			LPSI			RTH1			RTH2			RTH3			RLFC			RMFC			RTB1			RTB2			RTB3			RLMAL			RMMAL			RCAL			RTOE			RMT5			LTH1			LTH2			LTH3			LLFC			LMFC			LTB1			LTB2			LTB3			LLMAL			LMMAL			LCAL			LTOE			LMT5			RSJC			LSJC			RHJC			LHJC			RKJC			LKJC			RAJC			LAJC			REJC			LEJC			Mid_ASIS			Mid_PSIS			RASHv			RPSHv			LPSHv			RLFCv			RMFCv			RLMALv			RMMALv			LLFCv			LMFCv			LLMALv			LMMALv			LASHv			
		X1	Y1	Z1	X2	Y2	Z2	X3	Y3	Z3	X4	Y4	Z4	X5	Y5	Z5	X6	Y6	Z6	X7	Y7	Z7	X8	Y8	Z8	X9	Y9	Z9	X10	Y10	Z10	X11	Y11	Z11	X12	Y12	Z12	X13	Y13	Z13	X14	Y14	Z14	X15	Y15	Z15	X16	Y16	Z16	X17	Y17	Z17	X18	Y18	Z18	X19	Y19	Z19	X20	Y20	Z20	X21	Y21	Z21	X22	Y22	Z22	X23	Y23	Z23	X24	Y24	Z24	X25	Y25	Z25	X26	Y26	Z26	X27	Y27	Z27	X28	Y28	Z28	X29	Y29	Z29	X30	Y30	Z30	X31	Y31	Z31	X32	Y32	Z32	X33	Y33	Z33	X34	Y34	Z34	X35	Y35	Z35	X36	Y36	Z36	X37	Y37	Z37	X38	Y38	Z38	X39	Y39	Z39	X40	Y40	Z40	X41	Y41	Z41	X42	Y42	Z42	X43	Y43	Z43	X44	Y44	Z44	X45	Y45	Z45	X46	Y46	Z46	X47	Y47	Z47	X48	Y48	Z48	X49	Y49	Z49	X50	Y50	Z50	X51	Y51	Z51	X52	Y52	Z52	X53	Y53	Z53	X54	Y54	Z54	X55	Y55	Z55	X56	Y56	Z56	X57	Y57	Z57	X58	Y58	Z58	X59	Y59	Z59	X60	Y60	Z60	X61	Y61	Z61	X62	Y62	Z62	X63	Y63	Z63	X64	Y64	Z64	X65	Y65	Z65	X66	Y66	Z66	X67	Y67	Z67	X68	Y68	Z68	X69	Y69	Z69	X70	Y70	Z70	X71	Y71	Z71	X72	Y72	Z72	X73	Y73	Z73	X74	Y74	Z74	X75	Y75	Z75	X76	Y76	Z76	X77	Y77	Z77	X78	Y78	Z78	

77	0.507	1390.73157	1342.78174	-34.00608	1346.50220	1334.23901	-373.24402	1315.61475	1368.75952	-204.74625	1459.77551	1296.92456	-172.97032													1375.61768	1219.91821	39.21877	1379.38123	1136.76123	35.02544	1291.49207	1147.48035	58.51180	1312.81665	1084.32153	85.43789	1284.78528	1060.36377	2.18673	1395.12256	983.16138	29.37137	1426.86243	910.95013	-9.00000	1407.24854	868.85706	49.97771	1309.59497	1238.51624	-442.19299	1303.65759	1138.41809	-453.79407	1218.96118	1155.27051	-422.76678	1249.03796	1084.10889	-474.62256	1209.83398	1059.35083	-394.83514	1361.76782	1017.69946	-446.17621	1416.77527	997.39355	-389.30417	1402.60730	935.33197	-428.32187	1405.66882	831.89087	-93.95985	1409.38171	859.48248	-323.39233	1234.85693	877.67395	-167.11285	1230.44568	884.40936	-247.87268	1301.26111	722.63629	-54.64402	1284.28162	564.53644	-77.26472	1350.05701	542.13556	-33.16485							1282.71167	321.42001	-89.95149	1216.15698	402.86084	-45.20192	1122.39954	327.99515	-91.12388							965.26489	374.71384	-187.40651	959.00366	221.33495	-106.29510	980.11414	181.58870	-133.61476	1341.15833	770.63989	-391.78824	1344.56750	607.06122	-359.23300	1422.27917	550.32635	-364.29971							1481.81348	332.06015	-279.21619	1375.89453	287.31754	-329.22784	1406.89502	163.29591	-264.55615							1282.02344	49.13792	-207.30116	1480.99304	35.93555	-237.16168	1445.44531	29.72676	-280.70590																									1298.80090	1072.34265	43.81231	1229.43591	1071.72986	-434.72885	1407.52527	845.68665	-208.67609	1232.65125	881.04169	-207.49277	1458.43848	1204.16577	-35.13437	1374.38721	1270.04602	4.06270	1388.67688	1309.70190	-424.62949	1326.42615	426.63104	-26.03769	1412.50220	394.87308	-127.21670	981.14905	309.11087	-104.87274	1015.72980	273.83499	-182.08931	1460.73938	502.18323	-389.64630	1473.12109	492.60938	-257.46643	1364.00171	49.14561	-243.47461	1414.13489	79.07940	-172.40453	1455.32874	1238.39185	-452.94589	
78	0.513	1406.88770	1342.20911	-33.51506	1367.72180	1331.65710	-373.46146	1333.71216	1368.14124	-204.82298	1476.97583	1294.60181	-171.34875													1389.35449	1220.20300	40.44094	1390.12793	1138.09692	37.36138	1301.29431	1150.52234	56.73061	1321.06726	1087.20447	87.00769	1296.14600	1063.15686	2.59983	1401.49573	981.38257	30.85358	1431.12854	907.30237	-3.55950	1406.72778	865.93298	54.25762	1333.07788	1233.35168	-441.35349	1330.92993	1131.57605	-449.73105	1245.05066	1146.92334	-423.55066	1279.90393	1075.55994	-472.68216	1238.79016	1051.39233	-393.63898	1395.71301	1012.05878	-439.19608	1449.23572	996.25464	-380.96228	1438.28503	931.52704	-416.22061	1421.95239	828.97797	-93.03081	1426.36182	859.65137	-322.51227	1251.02332	876.41522	-166.64188	1245.66223	882.21619	-246.18130	1319.80872	722.00653	-55.62012	1311.76538	561.28333	-76.98350	1377.94775	541.67102	-32.87358							1317.83850	320.34091	-89.53191	1251.62366	400.07477	-43.59916	1157.81543	324.51874	-87.54229							996.66620	367.65359	-180.66176	1020.60608	175.55812	-128.52095	998.05359	213.74103	-100.65406	1356.67590	769.84869	-391.76889	1355.14563	607.21698	-359.59012	1434.39294	547.40283	-364.51306							1488.60034	326.21237	-278.90506	1384.45667	284.07141	-327.95764	1410.22656	160.54851	-262.75974							1282.34180	50.31135	-205.94957	1481.22412	35.77231	-237.25800	1445.23682	29.75555	-280.55371																									1308.60657	1075.18066	44.80376	1259.34705	1063.47607	-433.16055	1424.15710	844.31470	-207.77155	1248.34277	879.31573	-206.41159	1474.83813	1200.66150	-29.89041	1391.61853	1269.89990	4.72877	1408.86768	1307.74890	-422.62469	1361.41980	428.17245	-23.98540	1449.64807	400.33511	-124.46277	1016.23590	303.86377	-98.39563	1049.73450	269.26794	-176.39297	1468.54688	498.09549	-388.89001	1479.45837	488.04068	-256.61633	1364.35657	46.46093	-240.17110	1414.63342	76.27013	-169.15015	1479.08911	1237.82422	-445.18350	
79	0.520	1422.63074	1342.10254	-32.86918	1389.07263	1329.81958	-373.62448	1350.85522	1367.32080	-204.70300	1493.99756	1292.77771	-169.49989													1402.93726	1221.28955	41.83036	1400.94751	1139.63525	38.91953	1311.57800	1154.41711	55.51513	1329.58997	1090.97961	88.22333	1306.82788	1066.85254	3.38058	1407.80273	980.74902	33.13489	1435.79053	905.71472	1.62961	1406.61328	865.19775	58.01650	1356.45593	1229.17761	-440.45172	1358.57422	1126.84412	-447.30148	1271.30481	1139.39673	-424.84927	1311.00073	1068.40991	-470.48093	1266.68616	1044.93262	-392.14960	1428.88977	1009.45435	-431.43591	1480.89648	997.26599	-371.92496	1474.06458	930.74597	-405.07050	1437.25317	827.46167	-92.45248	1442.23511	859.07050	-322.43280	1267.24890	875.99200	-167.00854	1261.82422	882.03894	-245.53363	1338.29468	721.86261	-56.11609	1339.34204	559.53589	-77.37766	1406.48010	543.60376	-32.39697							1353.26489	320.18359	-89.27280	1286.99084	397.97308	-42.25425	1193.53015	321.29443	-84.49304							1028.21069	359.16867	-174.00606	1061.25928	168.19702	-123.29755	1037.76111	205.36263	-94.93627	1372.32483	769.30927	-391.81000	1364.71948	607.53668	-359.81937	1443.07104	545.60938	-364.51532							1494.47034	320.66757	-277.78214	1392.57117	281.84109	-326.42728	1412.54785	158.48589	-260.99393							1282.47375	51.47372	-204.35765	1481.09790	35.70280	-237.23502	1444.76221	29.81630	-280.18430																									1318.20898	1078.91614	45.80195	1288.84351	1056.67126	-431.31528	1439.74414	843.26605	-207.44263	1264.53650	879.01550	-206.27109	1489.85535	1198.60608	-25.74560	1408.05701	1270.78247	6.13012	1428.50574	1306.74292	-419.90253	1395.79175	430.83105	-23.47512	1486.31409	407.74170	-123.11162	1051.89478	298.31525	-92.73997	1084.58875	264.55884	-171.44339	1474.32104	493.70779	-388.09427	1483.80029	483.27512	-255.73950	1362.46118	44.63997	-238.03242	1412.64514	73.79131	-166.67354	1502.22229	1239.29529	-438.50620	
80	0.527	1437.95789	1342.43823	-31.92181	1410.24915	1328.89514	-373.44324	1367.38025	1366.33875	-204.63756	1510.81445	1291.88684	-167.37929													1415.46179	1222.82837	43.58124	1411.98157	1141.29260	39.87884	1321.83508	1159.04065	55.11035	1337.85388	1095.43506	89.62957	1316.58960	1071.33813	4.55026	1414.01147	981.64716	37.17483	1440.66895	906.07019	6.99493	1407.44983	866.42126	61.49185	1381.53674	1226.41797	-438.68109	1386.54211	1124.08252	-444.40643	1297.78748	1133.32422	-426.31369	1341.99951	1063.28223	-467.83707	1295.28210	1040.10571	-391.77005	1460.12146	1010.27594	-423.50620	1511.16748	1000.54852	-362.71948	1509.29614	932.90375	-393.91534	1451.78198	827.26837	-91.56264	1458.08777	858.91949	-322.49167	1283.31091	876.04047	-167.88980	1278.52490	882.91003	-246.22490	1356.54370	721.61151	-56.25643	1366.17896	559.90070	-77.75826	1433.50146	545.53992	-32.32708							1388.79492	321.03799	-89.40893	1322.12573	396.69528	-41.29529	1229.35205	317.66083	-81.19865							1059.86389	349.33722	-167.71143	1078.82324	196.02670	-88.98917	1102.85303	159.10170	-118.03418	1387.80383	768.81195	-391.72397	1375.91174	606.75714	-359.38474	1449.66235	543.66345	-363.89499							1499.60083	317.29520	-276.16217	1397.29907	281.28149	-325.65622	1414.28345	157.98746	-259.70938							1282.57092	52.54697	-203.05229	1480.95142	35.58000	-237.03209	1444.25500	29.94533	-279.63065																									1327.22168	1083.38660	47.08992	1318.64087	1051.69397	-429.80356	1454.93481	843.09393	-207.02715	1280.91797	879.47522	-207.05734	1502.81458	1197.69641	-22.55272	1422.20081	1272.52991	8.44428	1450.54932	1305.96765	-415.46625	1428.55261	433.84497	-23.45617	1521.31848	415.68442	-122.04385	1088.07764	291.52969	-85.86695	1119.78955	258.46582	-165.26309	1482.30200	490.54895	-388.11703	1492.07996	480.00995	-255.79240	1359.84534	44.92962	-237.65126	1410.14795	72.72467	-165.83621	1526.74072	1240.25806	-429.83698	
